<svg width="351" height="97" viewBox="0 0 351 97" fill="none" xmlns="http://www.w3.org/2000/svg">
<g filter="url(#filter0_d_13_52)">
<rect x="10" y="6" width="338" height="77" rx="20" fill="url(#paint0_linear_13_52)"/>
<path d="M55.52 50.84V47.57H71.24V50.84H55.52ZM65.96 33.5L76.76 56H72.53L62.72 35H64.25L54.44 56H50.21L61.01 33.5H65.96ZM89.6724 33.5C92.2324 33.5 94.4724 33.97 96.3924 34.91C98.3324 35.85 99.8424 37.17 100.922 38.87C102.002 40.55 102.542 42.51 102.542 44.75C102.542 46.99 102.002 48.96 100.922 50.66C99.8424 52.34 98.3324 53.65 96.3924 54.59C94.4724 55.53 92.2324 56 89.6724 56H79.5024V33.5H89.6724ZM83.4624 54.62L81.2724 52.52H89.9424C91.6624 52.52 93.1624 52.2 94.4424 51.56C95.7424 50.9 96.7424 49.99 97.4424 48.83C98.1624 47.65 98.5224 46.29 98.5224 44.75C98.5224 43.19 98.1624 41.83 97.4424 40.67C96.7424 39.51 95.7424 38.61 94.4424 37.97C93.1624 37.31 91.6624 36.98 89.9424 36.98H81.2724L83.4624 34.88V54.62ZM116.567 33.5C119.127 33.5 121.367 33.97 123.287 34.91C125.227 35.85 126.737 37.17 127.817 38.87C128.897 40.55 129.437 42.51 129.437 44.75C129.437 46.99 128.897 48.96 127.817 50.66C126.737 52.34 125.227 53.65 123.287 54.59C121.367 55.53 119.127 56 116.567 56H106.397V33.5H116.567ZM110.357 54.62L108.167 52.52H116.837C118.557 52.52 120.057 52.2 121.337 51.56C122.637 50.9 123.637 49.99 124.337 48.83C125.057 47.65 125.417 46.29 125.417 44.75C125.417 43.19 125.057 41.83 124.337 40.67C123.637 39.51 122.637 38.61 121.337 37.97C120.057 37.31 118.557 36.98 116.837 36.98H108.167L110.357 34.88V54.62ZM143.059 50.84V47.57H158.779V50.84H143.059ZM153.499 33.5L164.299 56H160.069L150.259 35H151.789L141.979 56H137.749L148.549 33.5H153.499ZM189.541 47.09C189.341 48.93 188.691 50.56 187.591 51.98C186.511 53.38 185.091 54.47 183.331 55.25C181.571 56.03 179.561 56.42 177.301 56.42C174.781 56.42 172.571 55.93 170.671 54.95C168.771 53.97 167.291 52.61 166.231 50.87C165.171 49.11 164.641 47.07 164.641 44.75C164.641 42.43 165.171 40.4 166.231 38.66C167.291 36.9 168.771 35.53 170.671 34.55C172.571 33.57 174.781 33.08 177.301 33.08C179.561 33.08 181.571 33.47 183.331 34.25C185.091 35.03 186.511 36.12 187.591 37.52C188.691 38.92 189.341 40.55 189.541 42.41H185.551C185.331 41.21 184.851 40.18 184.111 39.32C183.391 38.46 182.451 37.8 181.291 37.34C180.131 36.86 178.791 36.62 177.271 36.62C175.511 36.62 173.981 36.95 172.681 37.61C171.401 38.27 170.411 39.21 169.711 40.43C169.011 41.65 168.661 43.09 168.661 44.75C168.661 46.41 169.011 47.85 169.711 49.07C170.411 50.29 171.401 51.23 172.681 51.89C173.981 52.55 175.511 52.88 177.271 52.88C178.791 52.88 180.131 52.65 181.291 52.19C182.451 51.73 183.391 51.07 184.111 50.21C184.851 49.33 185.331 48.29 185.551 47.09H189.541ZM199.35 35.33H203.31V56H199.35V35.33ZM190.05 33.5H212.61V36.98H190.05V33.5ZM215.616 33.5H219.576V56H215.616V33.5ZM236.37 54.32H234.51L244.2 33.5H248.43L237.57 56H233.16L222.3 33.5H226.56L236.37 54.32ZM251.153 33.5H255.113V56H251.153V33.5ZM267.407 35.33H271.367V56H267.407V35.33ZM258.107 33.5H280.667V36.98H258.107V33.5ZM292.252 56V45.26H296.212V56H292.252ZM281.632 33.5H286.102L295.282 45.02H293.152L302.332 33.5H306.802L295.492 47.69L292.972 47.72L281.632 33.5Z" fill="white"/>
</g>
<defs>
<filter id="filter0_d_13_52" x="0" y="0" width="358" height="97" filterUnits="userSpaceOnUse" color-interpolation-filters="sRGB">
<feFlood flood-opacity="0" result="BackgroundImageFix"/>
<feColorMatrix in="SourceAlpha" type="matrix" values="0 0 0 0 0 0 0 0 0 0 0 0 0 0 0 0 0 0 127 0" result="hardAlpha"/>
<feOffset dy="4"/>
<feGaussianBlur stdDeviation="5"/>
<feComposite in2="hardAlpha" operator="out"/>
<feColorMatrix type="matrix" values="0 0 0 0 0 0 0 0 0 0 0 0 0 0 0 0 0 0 0.25 0"/>
<feBlend mode="normal" in2="BackgroundImageFix" result="effect1_dropShadow_13_52"/>
<feBlend mode="normal" in="SourceGraphic" in2="effect1_dropShadow_13_52" result="shape"/>
</filter>
<linearGradient id="paint0_linear_13_52" x1="10" y1="50" x2="347.991" y2="48.0001" gradientUnits="userSpaceOnUse">
<stop stop-color="#B5D9E8"/>
<stop offset="0.5" stop-color="#A279B4"/>
<stop offset="1" stop-color="#F1B1C1"/>
</linearGradient>
</defs>
</svg>
