<svg width="338" height="77" viewBox="0 0 338 77" fill="none" xmlns="http://www.w3.org/2000/svg">
<rect width="338" height="77" rx="20" fill="url(#paint0_linear_13_54)"/>
<path d="M45.52 44.84V41.57H61.24V44.84H45.52ZM55.96 27.5L66.76 50H62.53L52.72 29H54.25L44.44 50H40.21L51.01 27.5H55.96ZM79.6724 27.5C82.2324 27.5 84.4724 27.97 86.3924 28.91C88.3324 29.85 89.8424 31.17 90.9224 32.87C92.0024 34.55 92.5424 36.51 92.5424 38.75C92.5424 40.99 92.0024 42.96 90.9224 44.66C89.8424 46.34 88.3324 47.65 86.3924 48.59C84.4724 49.53 82.2324 50 79.6724 50H69.5024V27.5H79.6724ZM73.4624 48.62L71.2724 46.52H79.9424C81.6624 46.52 83.1624 46.2 84.4424 45.56C85.7424 44.9 86.7424 43.99 87.4424 42.83C88.1624 41.65 88.5224 40.29 88.5224 38.75C88.5224 37.19 88.1624 35.83 87.4424 34.67C86.7424 33.51 85.7424 32.61 84.4424 31.97C83.1624 31.31 81.6624 30.98 79.9424 30.98H71.2724L73.4624 28.88V48.62ZM106.567 27.5C109.127 27.5 111.367 27.97 113.287 28.91C115.227 29.85 116.737 31.17 117.817 32.87C118.897 34.55 119.437 36.51 119.437 38.75C119.437 40.99 118.897 42.96 117.817 44.66C116.737 46.34 115.227 47.65 113.287 48.59C111.367 49.53 109.127 50 106.567 50H96.397V27.5H106.567ZM100.357 48.62L98.167 46.52H106.837C108.557 46.52 110.057 46.2 111.337 45.56C112.637 44.9 113.637 43.99 114.337 42.83C115.057 41.65 115.417 40.29 115.417 38.75C115.417 37.19 115.057 35.83 114.337 34.67C113.637 33.51 112.637 32.61 111.337 31.97C110.057 31.31 108.557 30.98 106.837 30.98H98.167L100.357 28.88V48.62ZM133.059 44.84V41.57H148.779V44.84H133.059ZM143.499 27.5L154.299 50H150.069L140.259 29H141.789L131.979 50H127.749L138.549 27.5H143.499ZM179.541 41.09C179.341 42.93 178.691 44.56 177.591 45.98C176.511 47.38 175.091 48.47 173.331 49.25C171.571 50.03 169.561 50.42 167.301 50.42C164.781 50.42 162.571 49.93 160.671 48.95C158.771 47.97 157.291 46.61 156.231 44.87C155.171 43.11 154.641 41.07 154.641 38.75C154.641 36.43 155.171 34.4 156.231 32.66C157.291 30.9 158.771 29.53 160.671 28.55C162.571 27.57 164.781 27.08 167.301 27.08C169.561 27.08 171.571 27.47 173.331 28.25C175.091 29.03 176.511 30.12 177.591 31.52C178.691 32.92 179.341 34.55 179.541 36.41H175.551C175.331 35.21 174.851 34.18 174.111 33.32C173.391 32.46 172.451 31.8 171.291 31.34C170.131 30.86 168.791 30.62 167.271 30.62C165.511 30.62 163.981 30.95 162.681 31.61C161.401 32.27 160.411 33.21 159.711 34.43C159.011 35.65 158.661 37.09 158.661 38.75C158.661 40.41 159.011 41.85 159.711 43.07C160.411 44.29 161.401 45.23 162.681 45.89C163.981 46.55 165.511 46.88 167.271 46.88C168.791 46.88 170.131 46.65 171.291 46.19C172.451 45.73 173.391 45.07 174.111 44.21C174.851 43.33 175.331 42.29 175.551 41.09H179.541ZM189.35 29.33H193.31V50H189.35V29.33ZM180.05 27.5H202.61V30.98H180.05V27.5ZM205.616 27.5H209.576V50H205.616V27.5ZM226.37 48.32H224.51L234.2 27.5H238.43L227.57 50H223.16L212.3 27.5H216.56L226.37 48.32ZM241.153 27.5H245.113V50H241.153V27.5ZM257.407 29.33H261.367V50H257.407V29.33ZM248.107 27.5H270.667V30.98H248.107V27.5ZM282.252 50V39.26H286.212V50H282.252ZM271.632 27.5H276.102L285.282 39.02H283.152L292.332 27.5H296.802L285.492 41.69L282.972 41.72L271.632 27.5Z" fill="white"/>
<defs>
<linearGradient id="paint0_linear_13_54" x1="0" y1="38" x2="338" y2="38" gradientUnits="userSpaceOnUse">
<stop stop-color="#70A4BB"/>
<stop offset="0.5" stop-color="#925FA8"/>
<stop offset="1" stop-color="#CE7D91"/>
</linearGradient>
</defs>
</svg>
