<svg width="369" height="70" viewBox="0 0 369 70" fill="none" xmlns="http://www.w3.org/2000/svg">
<rect x="2" y="2" width="365" height="66" rx="8" fill="white"/>
<rect x="2" y="2" width="365" height="66" rx="8" fill="#B5D9E8" fill-opacity="0.2"/>
<rect x="2" y="2" width="365" height="66" rx="8" stroke="#B5D9E8" stroke-width="4"/>
<path d="M37.7969 44.0312L48.5281 40.95C49.2365 40.7375 49.8478 40.3741 50.362 39.8599C50.8763 39.3456 51.2389 38.735 51.45 38.0281L54.5313 27.2969C54.6375 26.9073 54.5405 26.5616 54.2401 26.2599C53.9398 25.9581 53.5941 25.8611 53.2031 25.9688L42.4719 29.05C41.7635 29.2625 41.153 29.6259 40.6401 30.1401C40.1273 30.6544 39.7639 31.265 39.55 31.9719L36.4688 42.7031C36.3625 43.0927 36.4603 43.4384 36.762 43.7401C37.0638 44.0419 37.4087 44.1389 37.7969 44.0312ZM45.5 38.1875C44.6146 38.1875 43.8623 37.878 43.2433 37.2589C42.6242 36.6398 42.3139 35.8868 42.3125 35C42.3111 34.1132 42.6213 33.3609 43.2433 32.7432C43.8652 32.1256 44.6174 31.8153 45.5 31.8125C46.3826 31.8097 47.1355 32.1199 47.7589 32.7432C48.3822 33.3666 48.6918 34.1188 48.6875 35C48.6833 35.8812 48.3737 36.6341 47.7589 37.2589C47.144 37.8836 46.3911 38.1932 45.5 38.1875ZM45.5 56.25C42.5604 56.25 39.7979 55.6918 37.2125 54.5755C34.6271 53.4592 32.3781 51.9455 30.4656 50.0344C28.5531 48.1233 27.0394 45.8743 25.9245 43.2875C24.8096 40.7007 24.2514 37.9382 24.25 35C24.2486 32.0618 24.8068 29.2993 25.9245 26.7125C27.0423 24.1257 28.556 21.8767 30.4656 19.9656C32.3753 18.0545 34.6243 16.5408 37.2125 15.4245C39.8008 14.3082 42.5633 13.75 45.5 13.75C48.4368 13.75 51.1993 14.3082 53.7875 15.4245C56.3758 16.5408 58.6247 18.0545 60.5344 19.9656C62.444 21.8767 63.9585 24.1257 65.0776 26.7125C66.1968 29.2993 66.7543 32.0618 66.75 35C66.7458 37.9382 66.1876 40.7007 65.0755 43.2875C63.9634 45.8743 62.4497 48.1233 60.5344 50.0344C58.619 51.9455 56.3701 53.4599 53.7875 54.5776C51.2049 55.6954 48.4424 56.2528 45.5 56.25Z" fill="black"/>
<path d="M85.68 45V25.4H92.162C93.5153 25.4 94.7847 25.6567 95.97 26.17C97.1553 26.674 98.196 27.3787 99.092 28.284C99.988 29.18 100.688 30.2207 101.192 31.406C101.705 32.582 101.962 33.8467 101.962 35.2C101.962 36.5533 101.705 37.8227 101.192 39.008C100.688 40.184 99.988 41.2247 99.092 42.13C98.196 43.026 97.1553 43.7307 95.97 44.244C94.7847 44.748 93.5153 45 92.162 45H85.68ZM88.592 42.088H92.162C93.114 42.088 94.0007 41.9107 94.822 41.556C95.6527 41.2013 96.3853 40.7067 97.02 40.072C97.664 39.4373 98.1633 38.7047 98.518 37.874C98.8727 37.0433 99.05 36.152 99.05 35.2C99.05 34.248 98.8727 33.3567 98.518 32.526C98.1633 31.6953 97.664 30.9627 97.02 30.328C96.3853 29.6933 95.6527 29.1987 94.822 28.844C94.0007 28.4893 93.114 28.312 92.162 28.312H88.592V42.088ZM104.301 31H107.213V45H104.301V31ZM105.785 28.97C105.337 28.97 104.964 28.8253 104.665 28.536C104.366 28.2467 104.217 27.8827 104.217 27.444C104.217 27.0147 104.366 26.6553 104.665 26.366C104.964 26.0673 105.332 25.918 105.771 25.918C106.2 25.918 106.564 26.0673 106.863 26.366C107.162 26.6553 107.311 27.0147 107.311 27.444C107.311 27.8827 107.162 28.2467 106.863 28.536C106.574 28.8253 106.214 28.97 105.785 28.97ZM114.571 45.266C113.834 45.2193 113.115 45.07 112.415 44.818C111.715 44.566 111.099 44.2253 110.567 43.796C110.045 43.3573 109.653 42.844 109.391 42.256L111.869 41.192C111.991 41.444 112.201 41.6913 112.499 41.934C112.807 42.1767 113.167 42.3773 113.577 42.536C113.988 42.6853 114.417 42.76 114.865 42.76C115.304 42.76 115.71 42.6993 116.083 42.578C116.466 42.4473 116.779 42.2513 117.021 41.99C117.264 41.7287 117.385 41.416 117.385 41.052C117.385 40.6413 117.245 40.324 116.965 40.1C116.695 39.8667 116.354 39.6893 115.943 39.568C115.533 39.4467 115.122 39.33 114.711 39.218C113.797 39.0127 112.957 38.7327 112.191 38.378C111.435 38.014 110.833 37.552 110.385 36.992C109.937 36.4227 109.713 35.7273 109.713 34.906C109.713 34.01 109.956 33.2353 110.441 32.582C110.927 31.9193 111.561 31.4107 112.345 31.056C113.139 30.7013 113.983 30.524 114.879 30.524C115.999 30.524 117.026 30.762 117.959 31.238C118.893 31.714 119.607 32.3673 120.101 33.198L117.791 34.57C117.651 34.29 117.441 34.038 117.161 33.814C116.881 33.59 116.564 33.4127 116.209 33.282C115.855 33.142 115.486 33.0627 115.103 33.044C114.627 33.0253 114.184 33.0813 113.773 33.212C113.372 33.3333 113.05 33.5293 112.807 33.8C112.565 34.0707 112.443 34.416 112.443 34.836C112.443 35.2467 112.588 35.5547 112.877 35.76C113.167 35.956 113.531 36.1147 113.969 36.236C114.417 36.3573 114.875 36.4927 115.341 36.642C116.172 36.9033 116.951 37.2253 117.679 37.608C118.407 37.9813 118.995 38.4433 119.443 38.994C119.891 39.5447 120.106 40.2167 120.087 41.01C120.087 41.8873 119.821 42.6573 119.289 43.32C118.767 43.9827 118.085 44.4867 117.245 44.832C116.405 45.1773 115.514 45.322 114.571 45.266ZM131.435 41.024L134.039 42.438C133.405 43.3247 132.597 44.034 131.617 44.566C130.647 45.098 129.592 45.364 128.453 45.364C127.165 45.364 125.989 45.0327 124.925 44.37C123.871 43.7073 123.026 42.8207 122.391 41.71C121.766 40.59 121.453 39.3533 121.453 38C121.453 36.9733 121.635 36.0167 121.999 35.13C122.363 34.234 122.863 33.45 123.497 32.778C124.141 32.0967 124.888 31.5647 125.737 31.182C126.587 30.7993 127.492 30.608 128.453 30.608C129.592 30.608 130.647 30.874 131.617 31.406C132.597 31.938 133.405 32.652 134.039 33.548L131.435 34.962C131.043 34.4953 130.586 34.1407 130.063 33.898C129.541 33.646 129.004 33.52 128.453 33.52C127.688 33.52 126.993 33.73 126.367 34.15C125.751 34.5607 125.261 35.1067 124.897 35.788C124.543 36.46 124.365 37.1973 124.365 38C124.365 38.7933 124.547 39.5307 124.911 40.212C125.275 40.884 125.765 41.4253 126.381 41.836C127.007 42.2467 127.697 42.452 128.453 42.452C129.032 42.452 129.583 42.3213 130.105 42.06C130.628 41.7987 131.071 41.4533 131.435 41.024ZM142.371 45.364C141.083 45.364 139.907 45.0327 138.843 44.37C137.789 43.7073 136.944 42.8207 136.309 41.71C135.684 40.59 135.371 39.3533 135.371 38C135.371 36.9733 135.553 36.0167 135.917 35.13C136.281 34.234 136.781 33.45 137.415 32.778C138.059 32.0967 138.806 31.5647 139.655 31.182C140.505 30.7993 141.41 30.608 142.371 30.608C143.659 30.608 144.831 30.9393 145.885 31.602C146.949 32.2647 147.794 33.156 148.419 34.276C149.054 35.396 149.371 36.6373 149.371 38C149.371 39.0173 149.189 39.9693 148.825 40.856C148.461 41.7427 147.957 42.5267 147.313 43.208C146.679 43.88 145.937 44.4073 145.087 44.79C144.247 45.1727 143.342 45.364 142.371 45.364ZM142.371 42.452C143.146 42.452 143.841 42.2467 144.457 41.836C145.073 41.4253 145.559 40.884 145.913 40.212C146.277 39.5307 146.459 38.7933 146.459 38C146.459 37.188 146.273 36.4413 145.899 35.76C145.535 35.0787 145.045 34.5373 144.429 34.136C143.813 33.7253 143.127 33.52 142.371 33.52C141.606 33.52 140.911 33.7253 140.285 34.136C139.669 34.5467 139.179 35.0927 138.815 35.774C138.461 36.4553 138.283 37.1973 138.283 38C138.283 38.8307 138.47 39.582 138.843 40.254C139.217 40.926 139.711 41.4627 140.327 41.864C140.953 42.256 141.634 42.452 142.371 42.452ZM158.985 45H155.247L150.137 30.972H153.245L157.109 41.64L160.987 30.972H164.081L158.985 45ZM171.848 45.364C170.56 45.364 169.384 45.0327 168.32 44.37C167.265 43.7073 166.42 42.8207 165.786 41.71C165.16 40.59 164.848 39.3533 164.848 38C164.848 36.9733 165.03 36.0167 165.394 35.13C165.758 34.234 166.257 33.45 166.892 32.778C167.536 32.0967 168.282 31.5647 169.132 31.182C169.981 30.7993 170.886 30.608 171.848 30.608C172.921 30.608 173.906 30.832 174.802 31.28C175.698 31.7187 176.463 32.33 177.098 33.114C177.732 33.8887 178.199 34.7847 178.498 35.802C178.796 36.81 178.885 37.8833 178.764 39.022H167.97C168.091 39.666 168.324 40.2493 168.67 40.772C169.024 41.2853 169.472 41.6913 170.014 41.99C170.564 42.2887 171.176 42.4427 171.848 42.452C172.557 42.452 173.201 42.2747 173.78 41.92C174.368 41.5653 174.848 41.0753 175.222 40.45L178.176 41.136C177.616 42.3773 176.771 43.3947 175.642 44.188C174.512 44.972 173.248 45.364 171.848 45.364ZM167.872 36.796H175.824C175.73 36.124 175.492 35.5173 175.11 34.976C174.736 34.4253 174.265 33.9913 173.696 33.674C173.136 33.3473 172.52 33.184 171.848 33.184C171.185 33.184 170.569 33.3427 170 33.66C169.44 33.9773 168.973 34.4113 168.6 34.962C168.236 35.5033 167.993 36.1147 167.872 36.796ZM181.082 45V31H183.994V32.484C184.48 31.9053 185.077 31.448 185.786 31.112C186.496 30.776 187.261 30.608 188.082 30.608C188.605 30.608 189.123 30.678 189.636 30.818L188.474 33.758C188.11 33.618 187.746 33.548 187.382 33.548C186.766 33.548 186.202 33.702 185.688 34.01C185.175 34.3087 184.764 34.7147 184.456 35.228C184.148 35.7413 183.994 36.3107 183.994 36.936V45H181.082ZM200.844 31H203.952L196.28 52H193.186L195.72 45L190.694 31H193.872L197.176 41.01L200.844 31Z" fill="black"/>
</svg>
