<svg width="51" height="51" viewBox="0 0 51 51" fill="none" xmlns="http://www.w3.org/2000/svg">
<path d="M25.5 0C11.4133 0 0 11.4133 0 25.5C0 39.5867 11.4133 51 25.5 51C39.5867 51 51 39.5867 51 25.5C51 11.4133 39.5867 0 25.5 0ZM38.0032 32.1937C38.4865 32.677 38.4865 33.4585 38.0032 33.9417L33.9314 38.0032C33.4482 38.4865 32.6667 38.4865 32.1835 38.0032L25.5 31.2581L18.8062 38.0032C18.323 38.4865 17.5415 38.4865 17.0583 38.0032L12.9968 33.9314C12.5135 33.4482 12.5135 32.6667 12.9968 32.1835L19.7419 25.5L12.9968 18.8062C12.5135 18.323 12.5135 17.5415 12.9968 17.0583L17.0685 12.9865C17.5518 12.5032 18.3333 12.5032 18.8165 12.9865L25.5 19.7419L32.1937 12.9968C32.677 12.5135 33.4585 12.5135 33.9417 12.9968L38.0135 17.0685C38.4968 17.5518 38.4968 18.3333 38.0135 18.8165L31.2581 25.5L38.0032 32.1937Z" fill="black"/>
</svg>
