<svg width="51" height="41" viewBox="0 0 51 41" fill="none" xmlns="http://www.w3.org/2000/svg">
<g clip-path="url(#clip0_37_2083)">
<path d="M42.075 35.9002H8.925C8.22375 35.9002 7.65 36.4739 7.65 37.1752V39.7252C7.65 40.4264 8.22375 41.0002 8.925 41.0002H42.075C42.7762 41.0002 43.35 40.4264 43.35 39.7252V37.1752C43.35 36.4739 42.7762 35.9002 42.075 35.9002ZM47.175 10.4002C45.0633 10.4002 43.35 12.1135 43.35 14.2252C43.35 14.791 43.4775 15.3169 43.7006 15.803L37.9312 19.2614C36.7041 19.9946 35.1183 19.5802 34.4091 18.3371L27.9145 6.97363C28.7672 6.27238 29.325 5.22051 29.325 4.0252C29.325 1.91348 27.6117 0.200195 25.5 0.200195C23.3883 0.200195 21.675 1.91348 21.675 4.0252C21.675 5.22051 22.2328 6.27238 23.0855 6.97363L16.5909 18.3371C15.8817 19.5802 14.288 19.9946 13.0687 19.2614L7.30734 15.803C7.5225 15.3249 7.65797 14.791 7.65797 14.2252C7.65797 12.1135 5.94469 10.4002 3.83297 10.4002C1.72125 10.4002 0 12.1135 0 14.2252C0 16.3369 1.71328 18.0502 3.825 18.0502C4.03219 18.0502 4.23938 18.0183 4.43859 17.9864L10.2 33.3502H40.8L46.5614 17.9864C46.7606 18.0183 46.9678 18.0502 47.175 18.0502C49.2867 18.0502 51 16.3369 51 14.2252C51 12.1135 49.2867 10.4002 47.175 10.4002Z" fill="black"/>
</g>
<defs>
<clipPath id="clip0_37_2083">
<rect width="51" height="40.8" fill="white" transform="translate(0 0.200195)"/>
</clipPath>
</defs>
</svg>
