<svg width="369" height="70" viewBox="0 0 369 70" fill="none" xmlns="http://www.w3.org/2000/svg">
<rect width="369" height="70" rx="10" fill="white"/>
<path d="M35.3 35C40.2327 35 44.225 31.0077 44.225 26.075C44.225 21.1423 40.2327 17.15 35.3 17.15C30.3673 17.15 26.375 21.1423 26.375 26.075C26.375 31.0077 30.3673 35 35.3 35ZM41.42 37.55H40.7586C39.1011 38.3469 37.2603 38.825 35.3 38.825C33.3397 38.825 31.5069 38.3469 29.8414 37.55H29.18C24.1119 37.55 20 41.6619 20 46.73V49.025C20 51.1367 21.7133 52.85 23.825 52.85H46.775C48.8867 52.85 50.6 51.1367 50.6 49.025V46.73C50.6 41.6619 46.4881 37.55 41.42 37.55ZM58.25 35C62.4734 35 65.9 31.5734 65.9 27.35C65.9 23.1266 62.4734 19.7 58.25 19.7C54.0266 19.7 50.6 23.1266 50.6 27.35C50.6 31.5734 54.0266 35 58.25 35ZM62.075 37.55H61.7722C60.6645 37.9325 59.4931 38.1875 58.25 38.1875C57.0069 38.1875 55.8355 37.9325 54.7278 37.55H54.425C52.7994 37.55 51.3012 38.0202 49.9864 38.7772C51.9308 40.873 53.15 43.6541 53.15 46.73V49.79C53.15 49.9653 53.1102 50.1327 53.1022 50.3H67.175C69.2867 50.3 71 48.5867 71 46.475C71 41.5423 67.0077 37.55 62.075 37.55Z" fill="black"/>
<path d="M85.68 45V25.4H97.23V28.312H88.592V33.044H95.886V35.956H88.592V45H85.68ZM98.5863 45V31H101.498V32.484C101.984 31.9053 102.581 31.448 103.29 31.112C104 30.776 104.765 30.608 105.586 30.608C106.109 30.608 106.627 30.678 107.14 30.818L105.978 33.758C105.614 33.618 105.25 33.548 104.886 33.548C104.27 33.548 103.706 33.702 103.192 34.01C102.679 34.3087 102.268 34.7147 101.96 35.228C101.652 35.7413 101.498 36.3107 101.498 36.936V45H98.5863ZM108.758 31H111.67V45H108.758V31ZM110.242 28.97C109.794 28.97 109.421 28.8253 109.122 28.536C108.823 28.2467 108.674 27.8827 108.674 27.444C108.674 27.0147 108.823 26.6553 109.122 26.366C109.421 26.0673 109.789 25.918 110.228 25.918C110.657 25.918 111.021 26.0673 111.32 26.366C111.619 26.6553 111.768 27.0147 111.768 27.444C111.768 27.8827 111.619 28.2467 111.32 28.536C111.031 28.8253 110.671 28.97 110.242 28.97ZM120.934 45.364C119.646 45.364 118.47 45.0327 117.406 44.37C116.351 43.7073 115.506 42.8207 114.872 41.71C114.246 40.59 113.934 39.3533 113.934 38C113.934 36.9733 114.116 36.0167 114.48 35.13C114.844 34.234 115.343 33.45 115.978 32.778C116.622 32.0967 117.368 31.5647 118.218 31.182C119.067 30.7993 119.972 30.608 120.934 30.608C122.007 30.608 122.992 30.832 123.888 31.28C124.784 31.7187 125.549 32.33 126.184 33.114C126.818 33.8887 127.285 34.7847 127.584 35.802C127.882 36.81 127.971 37.8833 127.85 39.022H117.056C117.177 39.666 117.41 40.2493 117.756 40.772C118.11 41.2853 118.558 41.6913 119.1 41.99C119.65 42.2887 120.262 42.4427 120.934 42.452C121.643 42.452 122.287 42.2747 122.866 41.92C123.454 41.5653 123.934 41.0753 124.308 40.45L127.262 41.136C126.702 42.3773 125.857 43.3947 124.728 44.188C123.598 44.972 122.334 45.364 120.934 45.364ZM116.958 36.796H124.91C124.816 36.124 124.578 35.5173 124.196 34.976C123.822 34.4253 123.351 33.9913 122.782 33.674C122.222 33.3473 121.606 33.184 120.934 33.184C120.271 33.184 119.655 33.3427 119.086 33.66C118.526 33.9773 118.059 34.4113 117.686 34.962C117.322 35.5033 117.079 36.1147 116.958 36.796ZM142.768 36.222V45H139.856V36.936C139.856 36.3107 139.702 35.7413 139.394 35.228C139.096 34.7147 138.69 34.3087 138.176 34.01C137.672 33.702 137.103 33.548 136.468 33.548C135.852 33.548 135.288 33.702 134.774 34.01C134.261 34.3087 133.85 34.7147 133.542 35.228C133.234 35.7413 133.08 36.3107 133.08 36.936V45H130.168V31H133.08V32.484C133.566 31.9053 134.163 31.448 134.872 31.112C135.582 30.776 136.347 30.608 137.168 30.608C138.204 30.608 139.147 30.86 139.996 31.364C140.846 31.868 141.518 32.5447 142.012 33.394C142.516 34.2433 142.768 35.186 142.768 36.222ZM156.195 24H159.107V45H156.195V42.942C155.738 43.67 155.141 44.258 154.403 44.706C153.666 45.1447 152.803 45.364 151.813 45.364C150.796 45.364 149.844 45.1727 148.957 44.79C148.071 44.4073 147.287 43.88 146.605 43.208C145.933 42.5267 145.406 41.7427 145.023 40.856C144.641 39.9693 144.449 39.0173 144.449 38C144.449 36.9827 144.641 36.0307 145.023 35.144C145.406 34.248 145.933 33.464 146.605 32.792C147.287 32.1107 148.071 31.5787 148.957 31.196C149.844 30.8133 150.796 30.622 151.813 30.622C152.803 30.622 153.666 30.846 154.403 31.294C155.141 31.7327 155.738 32.3113 156.195 33.03V24ZM151.841 42.55C152.663 42.55 153.381 42.3493 153.997 41.948C154.613 41.5373 155.089 40.9867 155.425 40.296C155.771 39.6053 155.943 38.84 155.943 38C155.943 37.1507 155.771 36.3807 155.425 35.69C155.08 34.9993 154.599 34.4533 153.983 34.052C153.377 33.6413 152.663 33.436 151.841 33.436C151.029 33.436 150.287 33.6413 149.615 34.052C148.953 34.4627 148.421 35.0133 148.019 35.704C147.627 36.3947 147.431 37.16 147.431 38C147.431 38.8493 147.632 39.6193 148.033 40.31C148.444 40.9913 148.981 41.5373 149.643 41.948C150.315 42.3493 151.048 42.55 151.841 42.55ZM166.661 45.266C165.924 45.2193 165.205 45.07 164.505 44.818C163.805 44.566 163.189 44.2253 162.657 43.796C162.135 43.3573 161.743 42.844 161.481 42.256L163.959 41.192C164.081 41.444 164.291 41.6913 164.589 41.934C164.897 42.1767 165.257 42.3773 165.667 42.536C166.078 42.6853 166.507 42.76 166.955 42.76C167.394 42.76 167.8 42.6993 168.173 42.578C168.556 42.4473 168.869 42.2513 169.111 41.99C169.354 41.7287 169.475 41.416 169.475 41.052C169.475 40.6413 169.335 40.324 169.055 40.1C168.785 39.8667 168.444 39.6893 168.033 39.568C167.623 39.4467 167.212 39.33 166.801 39.218C165.887 39.0127 165.047 38.7327 164.281 38.378C163.525 38.014 162.923 37.552 162.475 36.992C162.027 36.4227 161.803 35.7273 161.803 34.906C161.803 34.01 162.046 33.2353 162.531 32.582C163.017 31.9193 163.651 31.4107 164.435 31.056C165.229 30.7013 166.073 30.524 166.969 30.524C168.089 30.524 169.116 30.762 170.049 31.238C170.983 31.714 171.697 32.3673 172.191 33.198L169.881 34.57C169.741 34.29 169.531 34.038 169.251 33.814C168.971 33.59 168.654 33.4127 168.299 33.282C167.945 33.142 167.576 33.0627 167.193 33.044C166.717 33.0253 166.274 33.0813 165.863 33.212C165.462 33.3333 165.14 33.5293 164.897 33.8C164.655 34.0707 164.533 34.416 164.533 34.836C164.533 35.2467 164.678 35.5547 164.967 35.76C165.257 35.956 165.621 36.1147 166.059 36.236C166.507 36.3573 166.965 36.4927 167.431 36.642C168.262 36.9033 169.041 37.2253 169.769 37.608C170.497 37.9813 171.085 38.4433 171.533 38.994C171.981 39.5447 172.196 40.2167 172.177 41.01C172.177 41.8873 171.911 42.6573 171.379 43.32C170.857 43.9827 170.175 44.4867 169.335 44.832C168.495 45.1773 167.604 45.322 166.661 45.266ZM189.323 25.4L183.653 46.568H180.741L186.411 25.4H189.323ZM207.928 45.364C206.602 45.364 205.356 45.1027 204.19 44.58C203.023 44.048 201.996 43.32 201.11 42.396C200.232 41.4627 199.542 40.38 199.038 39.148C198.543 37.916 198.296 36.6 198.296 35.2C198.296 33.8 198.543 32.484 199.038 31.252C199.542 30.02 200.232 28.942 201.11 28.018C201.996 27.0847 203.023 26.3567 204.19 25.834C205.356 25.302 206.602 25.036 207.928 25.036C209.514 25.036 210.975 25.4047 212.31 26.142C213.644 26.8793 214.75 27.8593 215.628 29.082L213.038 30.468C212.431 29.7027 211.68 29.0913 210.784 28.634C209.888 28.1767 208.936 27.948 207.928 27.948C206.994 27.948 206.122 28.1393 205.31 28.522C204.498 28.9047 203.784 29.4273 203.168 30.09C202.552 30.7527 202.071 31.5227 201.726 32.4C201.38 33.2773 201.208 34.2107 201.208 35.2C201.208 36.1987 201.38 37.1367 201.726 38.014C202.071 38.882 202.552 39.652 203.168 40.324C203.793 40.9867 204.512 41.5093 205.324 41.892C206.136 42.2653 207.004 42.452 207.928 42.452C208.954 42.452 209.911 42.2233 210.798 41.766C211.694 41.2993 212.44 40.6833 213.038 39.918L215.628 41.332C214.75 42.5547 213.644 43.5347 212.31 44.272C210.975 45 209.514 45.364 207.928 45.364ZM223.774 45.364C222.486 45.364 221.31 45.0327 220.246 44.37C219.191 43.7073 218.346 42.8207 217.712 41.71C217.086 40.59 216.774 39.3533 216.774 38C216.774 36.9733 216.956 36.0167 217.32 35.13C217.684 34.234 218.183 33.45 218.818 32.778C219.462 32.0967 220.208 31.5647 221.058 31.182C221.907 30.7993 222.812 30.608 223.774 30.608C225.062 30.608 226.233 30.9393 227.288 31.602C228.352 32.2647 229.196 33.156 229.822 34.276C230.456 35.396 230.774 36.6373 230.774 38C230.774 39.0173 230.592 39.9693 230.228 40.856C229.864 41.7427 229.36 42.5267 228.716 43.208C228.081 43.88 227.339 44.4073 226.49 44.79C225.65 45.1727 224.744 45.364 223.774 45.364ZM223.774 42.452C224.548 42.452 225.244 42.2467 225.86 41.836C226.476 41.4253 226.961 40.884 227.316 40.212C227.68 39.5307 227.862 38.7933 227.862 38C227.862 37.188 227.675 36.4413 227.302 35.76C226.938 35.0787 226.448 34.5373 225.832 34.136C225.216 33.7253 224.53 33.52 223.774 33.52C223.008 33.52 222.313 33.7253 221.688 34.136C221.072 34.5467 220.582 35.0927 220.218 35.774C219.863 36.4553 219.686 37.1973 219.686 38C219.686 38.8307 219.872 39.582 220.246 40.254C220.619 40.926 221.114 41.4627 221.73 41.864C222.355 42.256 223.036 42.452 223.774 42.452ZM233.035 45V31H235.947V32.484C236.433 31.9053 237.025 31.448 237.725 31.112C238.435 30.776 239.2 30.608 240.021 30.608C241.02 30.608 241.939 30.8507 242.779 31.336C243.619 31.812 244.287 32.4467 244.781 33.24C245.276 32.4467 245.934 31.812 246.755 31.336C247.586 30.8507 248.501 30.608 249.499 30.608C250.535 30.608 251.478 30.86 252.327 31.364C253.177 31.868 253.853 32.5447 254.357 33.394C254.861 34.2433 255.113 35.186 255.113 36.222V45H252.201V36.964C252.201 36.348 252.052 35.7833 251.753 35.27C251.455 34.7567 251.053 34.3413 250.549 34.024C250.045 33.7067 249.485 33.548 248.869 33.548C248.253 33.548 247.693 33.6973 247.189 33.996C246.685 34.2947 246.284 34.7007 245.985 35.214C245.687 35.7273 245.537 36.3107 245.537 36.964V45H242.625V36.964C242.625 36.3107 242.476 35.7273 242.177 35.214C241.879 34.7007 241.473 34.2947 240.959 33.996C240.455 33.6973 239.895 33.548 239.279 33.548C238.673 33.548 238.113 33.7067 237.599 34.024C237.095 34.3413 236.694 34.7567 236.395 35.27C236.097 35.7833 235.947 36.348 235.947 36.964V45H233.035ZM257.918 45V31H260.83V32.484C261.316 31.9053 261.908 31.448 262.608 31.112C263.318 30.776 264.083 30.608 264.904 30.608C265.903 30.608 266.822 30.8507 267.662 31.336C268.502 31.812 269.17 32.4467 269.664 33.24C270.159 32.4467 270.817 31.812 271.638 31.336C272.469 30.8507 273.384 30.608 274.382 30.608C275.418 30.608 276.361 30.86 277.21 31.364C278.06 31.868 278.736 32.5447 279.24 33.394C279.744 34.2433 279.996 35.186 279.996 36.222V45H277.084V36.964C277.084 36.348 276.935 35.7833 276.636 35.27C276.338 34.7567 275.936 34.3413 275.432 34.024C274.928 33.7067 274.368 33.548 273.752 33.548C273.136 33.548 272.576 33.6973 272.072 33.996C271.568 34.2947 271.167 34.7007 270.868 35.214C270.57 35.7273 270.42 36.3107 270.42 36.964V45H267.508V36.964C267.508 36.3107 267.359 35.7273 267.06 35.214C266.762 34.7007 266.356 34.2947 265.842 33.996C265.338 33.6973 264.778 33.548 264.162 33.548C263.556 33.548 262.996 33.7067 262.482 34.024C261.978 34.3413 261.577 34.7567 261.278 35.27C260.98 35.7833 260.83 36.348 260.83 36.964V45H257.918ZM282.241 39.75V31H285.153V39.036C285.153 39.6613 285.307 40.2307 285.615 40.744C285.923 41.2573 286.334 41.668 286.847 41.976C287.36 42.2747 287.925 42.424 288.541 42.424C289.166 42.424 289.731 42.2747 290.235 41.976C290.748 41.668 291.154 41.2573 291.453 40.744C291.761 40.2307 291.915 39.6613 291.915 39.036V31H294.827L294.841 45H291.929L291.915 43.488C291.439 44.0667 290.846 44.524 290.137 44.86C289.428 45.196 288.667 45.364 287.855 45.364C286.819 45.364 285.876 45.112 285.027 44.608C284.178 44.104 283.501 43.4273 282.997 42.578C282.493 41.7287 282.241 40.786 282.241 39.75ZM310.249 36.222V45H307.337V36.936C307.337 36.3107 307.183 35.7413 306.875 35.228C306.576 34.7147 306.17 34.3087 305.657 34.01C305.153 33.702 304.583 33.548 303.949 33.548C303.333 33.548 302.768 33.702 302.255 34.01C301.741 34.3087 301.331 34.7147 301.023 35.228C300.715 35.7413 300.561 36.3107 300.561 36.936V45H297.649V31H300.561V32.484C301.046 31.9053 301.643 31.448 302.353 31.112C303.062 30.776 303.827 30.608 304.649 30.608C305.685 30.608 306.627 30.86 307.477 31.364C308.326 31.868 308.998 32.5447 309.493 33.394C309.997 34.2433 310.249 35.186 310.249 36.222ZM313.043 31H315.955V45H313.043V31ZM314.527 28.97C314.079 28.97 313.706 28.8253 313.407 28.536C313.109 28.2467 312.959 27.8827 312.959 27.444C312.959 27.0147 313.109 26.6553 313.407 26.366C313.706 26.0673 314.075 25.918 314.513 25.918C314.943 25.918 315.307 26.0673 315.605 26.366C315.904 26.6553 316.053 27.0147 316.053 27.444C316.053 27.8827 315.904 28.2467 315.605 28.536C315.316 28.8253 314.957 28.97 314.527 28.97ZM326.697 33.912H323.757L323.743 45H320.831L320.845 33.912H318.619V31H320.845L320.831 26.604H323.743L323.757 31H326.697V33.912ZM338.356 31H341.464L333.792 52H330.698L333.232 45L328.206 31H331.384L334.688 41.01L338.356 31Z" fill="black"/>
</svg>
