<svg width="369" height="70" viewBox="0 0 369 70" fill="none" xmlns="http://www.w3.org/2000/svg">
<rect x="2" y="2" width="365" height="66" rx="8" fill="white"/>
<rect x="2" y="2" width="365" height="66" rx="8" fill="#B5D9E8" fill-opacity="0.2"/>
<rect x="2" y="2" width="365" height="66" rx="8" stroke="#B5D9E8" stroke-width="4"/>
<g clip-path="url(#clip0_37_480)">
<path d="M52.5337 27.9667C58.485 33.9243 58.4033 43.4757 52.5695 49.3419C52.5586 49.3538 52.5456 49.3668 52.5337 49.3787L45.8399 56.0725C39.9361 61.9763 30.3308 61.9755 24.4279 56.0725C18.524 50.1696 18.524 40.5633 24.4279 34.6605L28.124 30.9644C29.1041 29.9842 30.7921 30.6357 30.8427 32.0208C30.9073 33.7861 31.2238 35.5596 31.8079 37.2723C32.0058 37.8522 31.8644 38.4937 31.4311 38.927L30.1275 40.2306C27.3359 43.0223 27.2483 47.5678 30.0125 50.3868C32.8039 53.2335 37.3921 53.2505 40.205 50.4376L46.8988 43.7448C49.7069 40.9368 49.6951 36.398 46.8988 33.6016C46.5301 33.2337 46.1588 32.9478 45.8687 32.7481C45.6635 32.6071 45.4941 32.4202 45.374 32.2022C45.2538 31.9842 45.1863 31.7411 45.1767 31.4924C45.1373 30.4398 45.5102 29.3552 46.3419 28.5234L48.4391 26.4262C48.9891 25.8762 49.8518 25.8087 50.4895 26.2537C51.2198 26.7637 51.9038 27.3369 52.5337 27.9667ZM66.5721 13.9276C60.6692 8.02452 51.0639 8.02372 45.1601 13.9276L38.4663 20.6213C38.4544 20.6333 38.4414 20.6462 38.4305 20.6582C32.5968 26.5244 32.515 36.0758 38.4663 42.0334C39.0962 42.6631 39.7802 43.2363 40.5104 43.7462C41.1481 44.1913 42.0109 44.1237 42.5608 43.5738L44.658 41.4765C45.4897 40.6448 45.8626 39.5602 45.8232 38.5076C45.8136 38.2588 45.7461 38.0158 45.6259 37.7978C45.5058 37.5798 45.3364 37.3928 45.1312 37.2519C44.8411 37.0522 44.4698 36.7663 44.1011 36.3983C41.3048 33.602 41.293 29.0632 44.1011 26.2551L50.7949 19.5624C53.6078 16.7495 58.1959 16.7664 60.9874 19.6132C63.7516 22.4321 63.6641 26.9777 60.8724 29.7693L59.5688 31.0729C59.1355 31.5062 58.9941 32.1477 59.192 32.7276C59.7761 34.4403 60.0926 36.2139 60.1572 37.9791C60.2079 39.3643 61.8958 40.0158 62.8759 39.0356L66.572 35.3395C72.476 29.4367 72.476 19.8304 66.5721 13.9276Z" fill="black"/>
</g>
<path d="M85.68 45L89.474 25.4H91.826L96.852 38.602L101.85 25.4H104.202L108.01 45H105.042L102.508 31.882L97.818 44.258H95.858L91.182 31.882L88.648 45H85.68ZM119.387 31H122.495L114.823 52H111.729L114.263 45L109.237 31H112.415L115.719 41.01L119.387 31ZM138.594 25.4H141.996L149.122 45H146.042L144.684 41.276H135.906L134.562 45H131.468L138.594 25.4ZM136.984 38.364H143.606L140.288 29.264L136.984 38.364ZM159.681 41.024L162.285 42.438C161.651 43.3247 160.843 44.034 159.863 44.566C158.893 45.098 157.838 45.364 156.699 45.364C155.411 45.364 154.235 45.0327 153.171 44.37C152.117 43.7073 151.272 42.8207 150.637 41.71C150.012 40.59 149.699 39.3533 149.699 38C149.699 36.9733 149.881 36.0167 150.245 35.13C150.609 34.234 151.109 33.45 151.743 32.778C152.387 32.0967 153.134 31.5647 153.983 31.182C154.833 30.7993 155.738 30.608 156.699 30.608C157.838 30.608 158.893 30.874 159.863 31.406C160.843 31.938 161.651 32.652 162.285 33.548L159.681 34.962C159.289 34.4953 158.832 34.1407 158.309 33.898C157.787 33.646 157.25 33.52 156.699 33.52C155.934 33.52 155.239 33.73 154.613 34.15C153.997 34.5607 153.507 35.1067 153.143 35.788C152.789 36.46 152.611 37.1973 152.611 38C152.611 38.7933 152.793 39.5307 153.157 40.212C153.521 40.884 154.011 41.4253 154.627 41.836C155.253 42.2467 155.943 42.452 156.699 42.452C157.278 42.452 157.829 42.3213 158.351 42.06C158.874 41.7987 159.317 41.4533 159.681 41.024ZM172.205 33.912H169.265L169.251 45H166.339L166.353 33.912H164.127V31H166.353L166.339 26.604H169.251L169.265 31H172.205V33.912ZM174.52 31H177.432V45H174.52V31ZM176.004 28.97C175.556 28.97 175.183 28.8253 174.884 28.536C174.585 28.2467 174.436 27.8827 174.436 27.444C174.436 27.0147 174.585 26.6553 174.884 26.366C175.183 26.0673 175.551 25.918 175.99 25.918C176.419 25.918 176.783 26.0673 177.082 26.366C177.381 26.6553 177.53 27.0147 177.53 27.444C177.53 27.8827 177.381 28.2467 177.082 28.536C176.793 28.8253 176.433 28.97 176.004 28.97ZM188.434 45H184.696L179.586 30.972H182.694L186.558 41.64L190.436 30.972H193.53L188.434 45ZM195.684 31H198.596V45H195.684V31ZM197.168 28.97C196.72 28.97 196.347 28.8253 196.048 28.536C195.749 28.2467 195.6 27.8827 195.6 27.444C195.6 27.0147 195.749 26.6553 196.048 26.366C196.347 26.0673 196.715 25.918 197.154 25.918C197.583 25.918 197.947 26.0673 198.246 26.366C198.545 26.6553 198.694 27.0147 198.694 27.444C198.694 27.8827 198.545 28.2467 198.246 28.536C197.957 28.8253 197.597 28.97 197.168 28.97ZM209.338 33.912H206.398L206.384 45H203.472L203.486 33.912H201.26V31H203.486L203.472 26.604H206.384L206.398 31H209.338V33.912ZM211.653 31H214.565V45H211.653V31ZM213.137 28.97C212.689 28.97 212.315 28.8253 212.017 28.536C211.718 28.2467 211.569 27.8827 211.569 27.444C211.569 27.0147 211.718 26.6553 212.017 26.366C212.315 26.0673 212.684 25.918 213.123 25.918C213.552 25.918 213.916 26.0673 214.215 26.366C214.513 26.6553 214.663 27.0147 214.663 27.444C214.663 27.8827 214.513 28.2467 214.215 28.536C213.925 28.8253 213.566 28.97 213.137 28.97ZM223.828 45.364C222.54 45.364 221.364 45.0327 220.3 44.37C219.246 43.7073 218.401 42.8207 217.766 41.71C217.141 40.59 216.828 39.3533 216.828 38C216.828 36.9733 217.01 36.0167 217.374 35.13C217.738 34.234 218.238 33.45 218.872 32.778C219.516 32.0967 220.263 31.5647 221.112 31.182C221.962 30.7993 222.867 30.608 223.828 30.608C224.902 30.608 225.886 30.832 226.782 31.28C227.678 31.7187 228.444 32.33 229.078 33.114C229.713 33.8887 230.18 34.7847 230.478 35.802C230.777 36.81 230.866 37.8833 230.744 39.022H219.95C220.072 39.666 220.305 40.2493 220.65 40.772C221.005 41.2853 221.453 41.6913 221.994 41.99C222.545 42.2887 223.156 42.4427 223.828 42.452C224.538 42.452 225.182 42.2747 225.76 41.92C226.348 41.5653 226.829 41.0753 227.202 40.45L230.156 41.136C229.596 42.3773 228.752 43.3947 227.622 44.188C226.493 44.972 225.228 45.364 223.828 45.364ZM219.852 36.796H227.804C227.711 36.124 227.473 35.5173 227.09 34.976C226.717 34.4253 226.246 33.9913 225.676 33.674C225.116 33.3473 224.5 33.184 223.828 33.184C223.166 33.184 222.55 33.3427 221.98 33.66C221.42 33.9773 220.954 34.4113 220.58 34.962C220.216 35.5033 219.974 36.1147 219.852 36.796ZM237.318 45.266C236.58 45.2193 235.862 45.07 235.162 44.818C234.462 44.566 233.846 44.2253 233.314 43.796C232.791 43.3573 232.399 42.844 232.138 42.256L234.616 41.192C234.737 41.444 234.947 41.6913 235.246 41.934C235.554 42.1767 235.913 42.3773 236.324 42.536C236.734 42.6853 237.164 42.76 237.612 42.76C238.05 42.76 238.456 42.6993 238.829 42.578C239.212 42.4473 239.525 42.2513 239.768 41.99C240.01 41.7287 240.132 41.416 240.132 41.052C240.132 40.6413 239.992 40.324 239.712 40.1C239.441 39.8667 239.1 39.6893 238.69 39.568C238.279 39.4467 237.868 39.33 237.458 39.218C236.543 39.0127 235.703 38.7327 234.938 38.378C234.182 38.014 233.58 37.552 233.132 36.992C232.684 36.4227 232.46 35.7273 232.46 34.906C232.46 34.01 232.702 33.2353 233.188 32.582C233.673 31.9193 234.308 31.4107 235.092 31.056C235.885 30.7013 236.73 30.524 237.626 30.524C238.746 30.524 239.772 30.762 240.706 31.238C241.639 31.714 242.353 32.3673 242.848 33.198L240.538 34.57C240.398 34.29 240.188 34.038 239.908 33.814C239.628 33.59 239.31 33.4127 238.956 33.282C238.601 33.142 238.232 33.0627 237.85 33.044C237.374 33.0253 236.93 33.0813 236.52 33.212C236.118 33.3333 235.796 33.5293 235.553 33.8C235.311 34.0707 235.19 34.416 235.19 34.836C235.19 35.2467 235.334 35.5547 235.624 35.76C235.913 35.956 236.277 36.1147 236.716 36.236C237.164 36.3573 237.621 36.4927 238.088 36.642C238.918 36.9033 239.698 37.2253 240.426 37.608C241.154 37.9813 241.742 38.4433 242.19 38.994C242.638 39.5447 242.852 40.2167 242.834 41.01C242.834 41.8873 242.568 42.6573 242.036 43.32C241.513 43.9827 240.832 44.4867 239.992 44.832C239.152 45.1773 238.26 45.322 237.318 45.266Z" fill="black"/>
<defs>
<clipPath id="clip0_37_480">
<rect width="51" height="51" fill="white" transform="translate(20 9.5)"/>
</clipPath>
</defs>
</svg>
