<svg width="369" height="70" viewBox="0 0 369 70" fill="none" xmlns="http://www.w3.org/2000/svg">
<rect x="2" y="2" width="365" height="66" rx="8" fill="#B5D9E8"/>
<rect x="2" y="2" width="365" height="66" rx="8" stroke="#B5D9E8" stroke-width="4"/>
<path d="M45.5 35C43.1625 35 41.1615 34.1677 39.4969 32.5031C37.8323 30.8385 37 28.8375 37 26.5C37 24.1625 37.8323 22.1615 39.4969 20.4969C41.1615 18.8323 43.1625 18 45.5 18C47.8375 18 49.8385 18.8323 51.5031 20.4969C53.1677 22.1615 54 24.1625 54 26.5C54 28.8375 53.1677 30.8385 51.5031 32.5031C49.8385 34.1677 47.8375 35 45.5 35ZM28.5 47.75V46.05C28.5 44.8458 28.8103 43.7394 29.4308 42.7307C30.0513 41.7221 30.8743 40.9514 31.9 40.4188C34.0958 39.3208 36.3271 38.4977 38.5938 37.9495C40.8604 37.4012 43.1625 37.1264 45.5 37.125C47.8375 37.1236 50.1396 37.3984 52.4062 37.9495C54.6729 38.5006 56.9042 39.3237 59.1 40.4188C60.1271 40.95 60.9509 41.7207 61.5714 42.7307C62.1919 43.7408 62.5014 44.8473 62.5 46.05V47.75C62.5 48.9188 62.0842 49.9196 61.2526 50.7526C60.421 51.5856 59.4202 52.0014 58.25 52H32.75C31.5812 52 30.5811 51.5842 29.7495 50.7526C28.9179 49.921 28.5014 48.9202 28.5 47.75Z" fill="black"/>
<path d="M85.68 45V25.4H92.428C93.4827 25.4 94.4347 25.6613 95.284 26.184C96.1427 26.7067 96.824 27.4113 97.328 28.298C97.8413 29.1847 98.098 30.1647 98.098 31.238C98.098 32.33 97.8367 33.3193 97.314 34.206C96.8007 35.0833 96.1147 35.7833 95.256 36.306C94.3973 36.8287 93.4547 37.09 92.428 37.09H88.592V45H85.68ZM88.592 34.178H92.134C92.694 34.178 93.2027 34.038 93.66 33.758C94.1267 33.478 94.4953 33.1047 94.766 32.638C95.046 32.1713 95.186 31.644 95.186 31.056C95.186 30.468 95.046 29.9407 94.766 29.474C94.4953 28.998 94.1267 28.6247 93.66 28.354C93.2027 28.074 92.694 27.934 92.134 27.934H88.592V34.178ZM100.391 45V31H103.303V32.484C103.788 31.9053 104.386 31.448 105.095 31.112C105.804 30.776 106.57 30.608 107.391 30.608C107.914 30.608 108.432 30.678 108.945 30.818L107.783 33.758C107.419 33.618 107.055 33.548 106.691 33.548C106.075 33.548 105.51 33.702 104.997 34.01C104.484 34.3087 104.073 34.7147 103.765 35.228C103.457 35.7413 103.303 36.3107 103.303 36.936V45H100.391ZM116.067 45.364C114.779 45.364 113.603 45.0327 112.539 44.37C111.484 43.7073 110.639 42.8207 110.005 41.71C109.379 40.59 109.067 39.3533 109.067 38C109.067 36.9733 109.249 36.0167 109.613 35.13C109.977 34.234 110.476 33.45 111.111 32.778C111.755 32.0967 112.501 31.5647 113.351 31.182C114.2 30.7993 115.105 30.608 116.067 30.608C117.355 30.608 118.526 30.9393 119.581 31.602C120.645 32.2647 121.489 33.156 122.115 34.276C122.749 35.396 123.067 36.6373 123.067 38C123.067 39.0173 122.885 39.9693 122.521 40.856C122.157 41.7427 121.653 42.5267 121.009 43.208C120.374 43.88 119.632 44.4073 118.783 44.79C117.943 45.1727 117.037 45.364 116.067 45.364ZM116.067 42.452C116.841 42.452 117.537 42.2467 118.153 41.836C118.769 41.4253 119.254 40.884 119.609 40.212C119.973 39.5307 120.155 38.7933 120.155 38C120.155 37.188 119.968 36.4413 119.595 35.76C119.231 35.0787 118.741 34.5373 118.125 34.136C117.509 33.7253 116.823 33.52 116.067 33.52C115.301 33.52 114.606 33.7253 113.981 34.136C113.365 34.5467 112.875 35.0927 112.511 35.774C112.156 36.4553 111.979 37.1973 111.979 38C111.979 38.8307 112.165 39.582 112.539 40.254C112.912 40.926 113.407 41.4627 114.023 41.864C114.648 42.256 115.329 42.452 116.067 42.452ZM129.173 27.822V31H133.121V33.912H129.173V45H126.261V33.912H124.595V31H126.261V27.822C126.261 27.0567 126.447 26.3613 126.821 25.736C127.194 25.1013 127.693 24.5973 128.319 24.224C128.953 23.8507 129.658 23.664 130.433 23.664C130.993 23.664 131.539 23.776 132.071 24C132.603 24.224 133.079 24.5693 133.499 25.036L131.413 27.094C131.31 26.926 131.165 26.8 130.979 26.716C130.801 26.6227 130.619 26.576 130.433 26.576C130.087 26.576 129.789 26.6973 129.537 26.94C129.294 27.1827 129.173 27.4767 129.173 27.822ZM135.282 31H138.194V45H135.282V31ZM136.766 28.97C136.318 28.97 135.944 28.8253 135.646 28.536C135.347 28.2467 135.198 27.8827 135.198 27.444C135.198 27.0147 135.347 26.6553 135.646 26.366C135.944 26.0673 136.313 25.918 136.752 25.918C137.181 25.918 137.545 26.0673 137.844 26.366C138.142 26.6553 138.292 27.0147 138.292 27.444C138.292 27.8827 138.142 28.2467 137.844 28.536C137.554 28.8253 137.195 28.97 136.766 28.97ZM141.598 45V24H144.51V45H141.598ZM153.828 45.364C152.54 45.364 151.364 45.0327 150.3 44.37C149.246 43.7073 148.401 42.8207 147.766 41.71C147.141 40.59 146.828 39.3533 146.828 38C146.828 36.9733 147.01 36.0167 147.374 35.13C147.738 34.234 148.238 33.45 148.872 32.778C149.516 32.0967 150.263 31.5647 151.112 31.182C151.962 30.7993 152.867 30.608 153.828 30.608C154.902 30.608 155.886 30.832 156.782 31.28C157.678 31.7187 158.444 32.33 159.078 33.114C159.713 33.8887 160.18 34.7847 160.478 35.802C160.777 36.81 160.866 37.8833 160.744 39.022H149.95C150.072 39.666 150.305 40.2493 150.65 40.772C151.005 41.2853 151.453 41.6913 151.994 41.99C152.545 42.2887 153.156 42.4427 153.828 42.452C154.538 42.452 155.182 42.2747 155.76 41.92C156.348 41.5653 156.829 41.0753 157.202 40.45L160.156 41.136C159.596 42.3773 158.752 43.3947 157.622 44.188C156.493 44.972 155.228 45.364 153.828 45.364ZM149.852 36.796H157.804C157.711 36.124 157.473 35.5173 157.09 34.976C156.717 34.4253 156.246 33.9913 155.676 33.674C155.116 33.3473 154.5 33.184 153.828 33.184C153.166 33.184 152.55 33.3427 151.98 33.66C151.42 33.9773 150.954 34.4113 150.58 34.962C150.216 35.5033 149.974 36.1147 149.852 36.796Z" fill="black"/>
</svg>
